<?xml version="1.0" standalone="no"?>
<!DOCTYPE svg PUBLIC "-//W3C//DTD SVG 20010904//EN"
 "http://www.w3.org/TR/2001/REC-SVG-20010904/DTD/svg10.dtd">
<svg version="1.0" xmlns="http://www.w3.org/2000/svg"
 width="700.000000pt" height="700.000000pt" viewBox="0 0 700.000000 700.000000"
 preserveAspectRatio="xMidYMid meet">
<metadata>
Created by potrace 1.11, written by Peter Selinger 2001-2013
</metadata>
<g transform="translate(0.000000,700.000000) scale(0.100000,-0.100000)"
fill="#000000" stroke="none">
<path d="M3278 6995 c-2 -1 -42 -5 -89 -9 -47 -4 -95 -8 -106 -10 -11 -3 -44
-7 -74 -11 -30 -3 -61 -8 -69 -10 -8 -2 -37 -6 -64 -10 -27 -3 -53 -8 -56 -10
-4 -2 -22 -7 -41 -10 -19 -3 -42 -8 -51 -11 -9 -3 -25 -7 -35 -9 -298 -62
-693 -223 -996 -405 -503 -302 -954 -764 -1241 -1270 -161 -285 -321 -698
-371 -961 -3 -13 -11 -58 -20 -99 -22 -115 -30 -160 -41 -255 -26 -230 -26
-667 1 -826 2 -13 6 -46 9 -74 9 -78 23 -156 51 -285 52 -241 152 -522 275
-774 58 -119 168 -315 197 -351 4 -6 34 -49 65 -95 52 -78 214 -286 263 -336
197 -207 294 -299 445 -419 92 -74 370 -265 386 -265 4 0 15 -6 23 -14 26 -22
260 -140 387 -194 306 -131 619 -215 954 -257 244 -31 692 -26 907 9 21 4 52
8 68 10 210 27 564 129 816 236 142 61 357 170 398 201 13 11 28 19 33 19 5 0
14 5 21 10 7 6 64 44 127 86 244 162 497 383 672 588 34 39 64 73 68 76 17 13
181 236 245 335 213 327 386 729 471 1098 2 9 6 27 9 40 14 60 55 299 60 352
4 33 9 71 11 85 9 47 11 525 4 605 -16 169 -22 220 -25 225 -2 3 -6 30 -10 60
-9 75 -69 337 -98 435 -232 761 -691 1402 -1331 1857 -70 51 -138 97 -150 104
-11 6 -52 31 -91 54 -293 180 -701 340 -1060 415 -44 9 -89 18 -100 21 -11 2
-45 7 -75 10 -30 3 -58 8 -61 9 -3 2 -35 7 -71 10 -35 4 -78 9 -94 11 -32 5
-540 14 -546 9z"/>
</g>
</svg>
